# xmcd
#
# Track frame offsets: 
#        151
#        23112
#        41824
#        53043
#        71882
#        94282
#        112230
#        129835
#        151467
#        174950
#        185374
#        199911
#        213199
#        226800
#        244221
#        257736
#        267669
#        279294
#        289811
#        303039
#
# Disc length: 4279 seconds
#
# Revision: 0
# Processed by: cddbd v1.5.2PL0 Copyright (c) Steve Scherf et al.
# Submitted via: ExactAudioCopy v1.0b1
#
DISCID=2410b514
DTITLE=Rebecca Dawn - I Believe
DYEAR=2009
DGENRE=Gospel
TTITLE0=How Great Thou Art
TTITLE1=Old Rugged Cross
TTITLE2=In The Garden
TTITLE3=I Can Only Imagine
TTITLE4=Will The Circle Be Unbroken
TTITLE5=I'll Fly Away
TTITLE6=I Saw The Light
TTITLE7=You Raise Me Up
TTITLE8=Jesus Loves Me.....Shianne
TTITLE9=Just A Closer Walk
TTITLE10=One Day At A Time
TTITLE11=Operator
TTITLE12=Amazing Grace
TTITLE13=Wind Beneath My Wings
TTITLE14=Put Your Hand In The Hand
TTITLE15=What A Friend We Have In Jesus
TTITLE16=In The Sweet Bye And Bye
TTITLE17=I Believe
TTITLE18=You'll Never Walk Alone
TTITLE19=Hide.....Shianne
EXTD=
EXTT0=
EXTT1=
EXTT2=
EXTT3=
EXTT4=
EXTT5=
EXTT6=
EXTT7=
EXTT8=
EXTT9=
EXTT10=
EXTT11=
EXTT12=
EXTT13=
EXTT14=
EXTT15=
EXTT16=
EXTT17=
EXTT18=
EXTT19=
PLAYORDER=
